PathFileType	4	(X/Y/Z)	/Users/mathieubourgeois/Desktop/Analyse/Traitement/Sujet_06/Data/Transformed_Sujet_06_velo_60.trc
DataRate	CameraRate	NumFrames	NumMarkers	Units	OrigDataRate	OrigDataStartFrame	OrigNumFrames
120.000000	120.000000	6	36	mm	120.000000	467	1868
Frame#	Time	RFHD			RANE			STRN			LANI			LKNE			T10			RHUM			RWRB			C7			LFWT			LTOE			RTOE			LWRA			LBWT			RBWT			RFWT			LKNI			RKNI			RKNE			LANE			RANI			LHEE			RHEE			LHUM			LRAD			RRAD			RWRA			LWRB			LFHD			LBHD			RBHD			RSHO			LSHO			CLAV			LCAR			RCAR			
		X1	Y1	Z1	X2	Y2	Z2	X3	Y3	Z3	X4	Y4	Z4	X5	Y5	Z5	X6	Y6	Z6	X7	Y7	Z7	X8	Y8	Z8	X9	Y9	Z9	X10	Y10	Z10	X11	Y11	Z11	X12	Y12	Z12	X13	Y13	Z13	X14	Y14	Z14	X15	Y15	Z15	X16	Y16	Z16	X17	Y17	Z17	X18	Y18	Z18	X19	Y19	Z19	X20	Y20	Z20	X21	Y21	Z21	X22	Y22	Z22	X23	Y23	Z23	X24	Y24	Z24	X25	Y25	Z25	X26	Y26	Z26	X27	Y27	Z27	X28	Y28	Z28	X29	Y29	Z29	X30	Y30	Z30	X31	Y31	Z31	X32	Y32	Z32	X33	Y33	Z33	X34	Y34	Z34	X35	Y35	Z35	X36	Y36	Z36	

468	3.891666666666667	259.6581420898438	1387.757080078125	107.9802627563476	-178.1278381347657	506.6383666992188	199.0066833496093	-47.18410110473634	1201.879760742188	45.24737930297844	84.65447998046875	345.3482971191406	-57.84753799438478	67.16956329345705	746.09912109375	-127.6190338134766	-201.9711456298828	1348.987915039062	49.47677993774403	186.8442077636718	1129.1015625	211.8949127197265	390.4916076660156	1008.769714355469	179.6793060302734	30.28702926635741	1461.088256835938	47.53531646728507	-180.7074584960938	1108.918090820312	-59.47123336792001	239.5818939208985	264.0697937011719	-123.3694229125976	-93.18315887451175	336.4242553710938	198.8385925292968	414.1877746582031	1027.684448242188	-138.9339752197266	-339.2243347167969	1138.221923828125	-7.06706190109264	-334.0468444824219	1135.8701171875	102.4714050292968	-176.1609497070313	1104.846557617188	149.587677001953	91.76239013671875	700.1263427734375	-34.61543273925784	98.11908721923827	745.6288452148438	124.7726135253906	83.47768402099607	790.3965454101562	220.2424163818359	56.97365570068361	338.6429748535156	-136.4055786132813	-154.3215637207032	494.8173217773438	122.5171356201171	5.91235923767091	325.6358642578125	-95.68733215332033	-227.5271148681641	530.4046020507812	149.9869842529296	185.1907043457032	1128.109252929688	-172.8488922119141	223.4456024169922	1176.411499023438	-189.7272491455079	227.7564697265625	1162.133911132812	255.0528869628906	422.4103698730469	1028.210327148438	231.7957458496094	429.2807312011719	1032.25927734375	-200.4205474853516	258.2950134277344	1378.855712890625	-35.67425918579107	182.0127716064453	1508.390014648438	-41.83346939086921	184.3956604003906	1536.23193359375	84.55384826660149	46.67188644409178	1408.339477539062	187.0511779785155	25.44672775268556	1406.536010742188	-109.5986251831056	35.83215332031249	1325.116943359375	42.42784118652337	489.4842224121094	1044.16259765625	-126.3115768432617	486.0473937988281	1049.537963867188	159.5709686279297	
469	3.9	259.5722961425781	1387.64404296875	108.3937683105468	-173.7173614501953	514.7207641601562	198.4032135009765	-47.27962493896485	1201.903442382812	45.50143814086906	81.28413391113283	337.8692016601562	-58.2350425720215	61.57077026367189	738.863037109375	-128.6266632080079	-202.0573120117188	1348.904907226562	49.52738189697255	186.7734222412109	1129.038330078125	212.0758056640625	390.4750061035156	1008.799743652344	179.7051696777344	30.16486358642577	1461.114990234375	48.02926254272452	-180.6373901367188	1108.701904296875	-59.73030471801767	235.9435424804688	255.5668029785156	-123.4524459838867	-89.60977172851565	344.8645629882812	198.8275909423828	414.1883544921875	1027.662353515625	-138.9061889648438	-339.0133361816406	1138.0654296875	-7.305031776428334	-334.0306396484375	1135.786254882812	102.2333526611327	-176.0353088378907	1104.9970703125	149.4451599121093	88.23681640625	691.9887084960938	-35.22442245483401	102.1868896484375	752.4182739257812	123.8588409423828	87.53695678710935	797.1336059570312	219.8920135498046	53.50418853759767	330.8627014160156	-136.6719665527344	-151.2322387695313	503.0185852050781	122.5819473266601	2.553572177886974	318.0946960449219	-95.83808898925783	-224.2251739501953	538.797607421875	150.2754516601562	185.21142578125	1128.2119140625	-172.7511901855469	223.5047149658203	1176.507934570312	-189.5429077148438	227.659423828125	1162.044067382812	255.2270050048828	422.3792419433594	1028.234985351562	231.8226928710938	429.2633361816406	1032.25830078125	-200.4061889648438	258.1699523925781	1378.901977539062	-35.21040344238287	181.9827575683594	1508.473266601562	-41.29422760009773	184.3776702880859	1536.19140625	85.14505767822259	46.51840591430662	1408.212768554688	187.5286865234374	25.60047912597658	1406.6728515625	-109.1285247802735	34.97784042358398	1325.7041015625	43.66089630126946	489.4787902832031	1044.174194335938	-126.3257751464844	486.0286560058594	1049.55712890625	159.5986938476562	
470	3.908333333333333	259.4322509765625	1387.564331054688	108.8460540771484	-170.1069793701172	522.756103515625	198.5348815917968	-47.37751388549805	1201.891967773438	45.76172256469719	77.6121063232422	330.6023254394531	-58.60341262817384	55.85973739624025	731.7774658203125	-129.6088867187501	-202.1481323242188	1348.801147460938	49.56865692138661	186.716079711914	1128.987182617188	212.2391052246093	390.4309997558594	1008.853332519531	179.7018127441406	30.04776573181152	1461.116455078125	48.53254318237296	-180.5625762939453	1108.448974609375	-60.00345993042001	231.8778839111328	247.2858581542969	-123.5606231689453	-85.72593688964847	354.7486877441406	200.2974090576172	414.1835021972656	1027.6123046875	-138.9082641601562	-338.8004760742188	1137.8310546875	-7.631309032440297	-334.0299987792969	1135.68310546875	101.9668045043944	-175.9140625	1105.115356445312	149.2404022216796	82.57955169677734	684.9610595703125	-35.88689041137699	106.1320343017578	758.5724487304688	122.6449813842773	91.42625427246091	803.94580078125	219.4706268310546	49.65517807006837	323.3378295898438	-136.9468536376953	-147.9139404296875	511.0542907714844	122.6645889282226	-1.180174112319935	310.7970886230469	-95.94617462158205	-220.9134674072266	546.7605590820312	150.5599517822265	185.2039947509766	1128.267578125	-172.6899108886719	223.510498046875	1176.580810546875	-189.3824462890626	227.5816955566406	1161.966796875	255.4041442871093	422.3524780273438	1028.254272460938	231.8364410400391	429.2594909667969	1032.252197265625	-200.4262847900391	258.0456237792969	1378.95361328125	-34.77787017822271	181.8986511230469	1508.562133789062	-40.70176315307624	184.2752227783203	1536.160766601562	85.76360321044915	46.31995773315428	1408.099731445312	188.1056060791015	25.69527435302736	1406.78515625	-108.5975646972657	34.85503387451171	1325.737548828125	44.03386306762688	489.4532470703125	1044.186157226562	-126.348030090332	486.0095520019531	1049.588500976562	159.6149444580078	
471	3.916666666666667	259.35009765625	1387.482299804688	109.2467498779296	-166.376937866211	530.5072631835938	198.6591339111328	-47.46271896362305	1201.926635742188	46.0760192871093	73.62368011474611	323.6309814453125	-58.9797706604004	50.00724411010744	724.8762817382812	-130.5363922119141	-202.2336273193359	1348.674560546875	49.59662628173817	186.6608581542968	1128.949340820312	212.4065551757812	390.3947143554688	1008.915954589844	179.6787719726562	29.90367126464843	1461.135375976562	49.06298065185538	-180.4510345458984	1108.168823242188	-60.34095764160165	227.3880462646485	239.1970672607422	-123.7172622680664	-81.18431091308597	362.3926391601562	199.2569274902343	414.1672973632812	1027.582641601562	-138.9285125732422	-338.5819702148438	1137.587158203125	-7.995236396789662	-334.0327758789062	1135.547119140625	101.5680923461913	-175.8215026855469	1105.22412109375	149.1026916503905	77.00004577636719	678.1460571289062	-36.59748077392582	113.1039047241211	766.9501953125	121.4111557006836	95.03774261474607	810.89111328125	219.0500335693359	45.35272216796876	316.1123962402344	-137.1659851074219	-144.4549865722657	518.86376953125	122.7538223266601	-5.377765655517567	303.8363037109375	-96.02683258056642	-217.5385131835938	554.3265380859375	150.905532836914	185.1561889648438	1128.28125	-172.659423828125	223.4891815185547	1176.626098632812	-189.2547912597657	227.5283508300781	1161.89404296875	255.5881958007812	422.3395080566406	1028.275512695312	231.8500671386719	429.202880859375	1032.207153320312	-200.4933013916016	257.9171142578125	1379.03173828125	-34.37530517578131	181.7847137451172	1508.655395507812	-40.16739654541023	184.1897125244141	1536.137939453125	86.3110046386718	46.10861587524412	1407.998901367188	188.5789184570312	25.79540824890138	1406.868774414062	-108.110939025879	34.7249412536621	1325.832275390625	44.38385772705071	489.4089965820312	1044.19384765625	-126.4147186279297	486.0081481933594	1049.614379882812	159.5652008056641	
472	3.925	259.2224426269531	1387.445068359375	109.6856689453124	-162.4937133789063	537.8988647460938	198.7132720947265	-47.52193450927735	1201.926391601562	46.39761352539055	69.23231506347658	316.8886413574219	-59.33205413818361	44.12416839599611	718.2190551757812	-131.4196472167969	-202.3212585449219	1348.54833984375	49.60386276245107	186.6074676513672	1128.912963867188	212.5939483642578	390.3567810058594	1009.010009765625	179.6032257080078	29.74131393432616	1461.1650390625	49.55710220336906	-180.308837890625	1107.884887695312	-60.68290710449228	222.4691772460938	231.2079315185547	-123.7965240478515	-76.37567901611331	370.4895629882812	198.7563018798828	414.0968627929688	1027.531860351562	-139.0390625	-338.368408203125	1137.3544921875	-8.437830924987903	-334.0556640625	1135.432983398438	101.1288681030272	-175.7781372070313	1105.336059570312	148.9296112060546	71.82062530517578	672.1942138671875	-37.56686019897464	117.1613082885742	774.20556640625	120.4794387817383	98.45530700683591	817.939208984375	218.4881134033203	40.6351661682129	309.1861267089844	-137.4355773925782	-141.4388427734375	526.3946533203125	122.5120391845703	-9.943817138671863	297.2641906738281	-96.1486053466797	-214.0522155761719	561.508544921875	151.2265624999999	185.0949401855469	1128.270385742188	-172.66552734375	223.4458312988282	1176.60986328125	-189.1811065673829	227.4838256835937	1161.826904296875	255.7622528076171	422.3548278808594	1028.333740234375	231.7799835205078	429.1404724121094	1032.156860351562	-200.5955810546875	257.7355041503906	1379.1220703125	-33.96184539794928	181.6632080078125	1508.780517578125	-39.6341857910157	184.0960540771484	1536.137817382812	86.90090179443352	45.86628341674803	1407.927612304688	189.1421966552734	25.88590049743654	1406.936767578125	-107.5069046020509	35.33471298217773	1325.341918945312	44.0328292846679	489.3473510742188	1044.207885742188	-126.5160446166992	486.0008544921875	1049.64404296875	159.4658050537109	
473	3.933333333333333	259.0697326660156	1387.445190429688	110.1297988891601	-158.429183959961	545.0048828125	198.7150726318359	-47.55731582641602	1201.940551757812	46.80458068847648	64.37075805664064	310.4273376464844	-59.67388153076173	38.211238861084	711.8530883789062	-132.2153625488282	-202.398193359375	1348.415649414062	49.59109497070302	186.5591735839843	1128.883422851562	212.7516021728515	390.3389282226562	1009.079406738281	179.5322113037109	29.57687377929687	1461.180541992188	50.07989883422843	-180.1858978271484	1107.554077148438	-61.00223159790048	217.1684875488282	223.4902648925781	-123.8619384765625	-70.75612640380862	378.6204528808594	198.6744995117187	414.0019836425781	1027.504638671875	-139.1896820068359	-338.1498413085938	1137.146362304688	-8.938460350036731	-334.1279296875	1135.349609375	100.6284179687499	-175.7787322998047	1105.43017578125	148.7953948974609	66.11878204345703	665.9555053710938	-38.37513351440433	120.8243560791015	781.3340454101562	119.5931320190429	101.6326293945312	825.0480346679688	217.7992401123046	35.7118492126465	302.5921630859375	-137.6616973876953	-138.3800354003907	533.65380859375	122.2160339355468	-15.00421428680419	291.2835998535156	-96.60821533203126	-210.4706268310547	568.1932983398438	151.433120727539	184.9990386962891	1128.24658203125	-172.7151031494141	223.3836059570313	1176.60693359375	-189.1643066406251	227.4603576660156	1161.758422851562	255.9229583740234	422.3616333007812	1028.396606445312	231.6931762695312	429.060302734375	1032.086547851562	-200.7414245605469	257.5849609375	1379.226684570312	-33.53520202636724	181.5137023925781	1508.898559570312	-39.05917358398445	183.9459991455078	1536.166625976562	87.4564132690429	45.7161178588867	1407.822143554688	189.6359558105468	25.92700004577638	1406.965942382812	-107.004379272461	34.4803123474121	1325.88525390625	45.31266021728509	489.2809448242188	1044.222412109375	-126.6594467163086	485.9803161621094	1049.689819335938	159.34228515625	
